ffmpeg started on 2025-06-04 at 19:17:25
Report written to "D:\Convert\FFMetrics\reports\psnr_report-6.txt"
Log level: 32
Command line:
ffmpeg -hide_banner -nostdin -i "G:\\\xc0\xed\xe8\xec\xe5\\\xce\xed\xe3\xee\xe8\xed\xe3\xe8\\!_36_\xce\xf1\xe5\xed\xfc_2024\\DreamCast\\\xc2\xfb \xef\xf0\xe0\xe2\xe4\xe0 \xe6\xe5\xed\xe8\xf2\xe5\xf1\xfc\\[DC] Kekkon Surutte Hontou Desuka - 01_Telegram_HEVC.mkv" -i "G:\\\xc0\xed\xe8\xec\xe5\\\xce\xed\xe3\xee\xe8\xed\xe3\xe8\\!_36_\xce\xf1\xe5\xed\xfc_2024\\DreamCast\\\xc2\xfb \xef\xf0\xe0\xe2\xe4\xe0 \xe6\xe5\xed\xe8\xf2\xe5\xf1\xfc\\[DC] Kekkon Surutte Hontou Desuka - 01_Telegram.mp4" -lavfi "[0:v]settb=AVTB,setpts=PTS-STARTPTS,format=pix_fmts=yuv420p10,fps=24000/1001,scale=1920:1080:flags=bicubic[main];[1:v]settb=AVTB,setpts=PTS-STARTPTS,format=pix_fmts=yuv420p,fps=24000/1001,scale=1920:1080:flags=bicubic[ref];[main][ref]psnr=eof_action=endall:stats_file='D\\:/Convert/FFMetrics/logs/psnr_logfile-6.txt'" -f null -
Input #0, matroska,webm, from 'G:\Аниме\Онгоинги\!_36_Осень_2024\DreamCast\Вы правда женитесь\[DC] Kekkon Surutte Hontou Desuka - 01_Telegram_HEVC.mkv':
  Metadata:
    COMPATIBLE_BRANDS: isomiso2avc1mp41
    MAJOR_BRAND     : isom
    MINOR_VERSION   : 512
    ENCODER         : Lavf61.7.100
  Duration: 00:23:48.74, start: -0.021000, bitrate: 1253 kb/s
  Stream #0:0: Video: hevc (Main 10), yuv420p10le(tv, bt709, progressive), 1920x1080 [SAR 1:1 DAR 16:9], 23.98 fps, 23.98 tbr, 1k tbn (default)
      Metadata:
        HANDLER_NAME    : VideoHandler
        VENDOR_ID       : [0][0][0][0]
        ENCODER         : Lavc61.19.100 libx265
        BPS             : 1058012
        DURATION        : 00:23:46.549708333
        NUMBER_OF_FRAMES: 34203
        NUMBER_OF_BYTES : 188663326
        _STATISTICS_WRITING_APP: mkvpropedit v66.0.0 ('Josie') 64-bit
        _STATISTICS_WRITING_DATE_UTC: 2025-05-30 07:12:37
        _STATISTICS_TAGS: BPS DURATION NUMBER_OF_FRAMES NUMBER_OF_BYTES
  Stream #0:1: Audio: aac (LC), 48000 Hz, stereo, fltp (default)
      Metadata:
        HANDLER_NAME    : SoundHandler
        VENDOR_ID       : [0][0][0][0]
        ENCODER         : Lavc61.19.100 aac
        BPS             : 193425
        DURATION        : 00:23:48.736000000
        NUMBER_OF_FRAMES: 66973
        NUMBER_OF_BYTES : 34544309
        _STATISTICS_WRITING_APP: mkvpropedit v66.0.0 ('Josie') 64-bit
        _STATISTICS_WRITING_DATE_UTC: 2025-05-30 07:12:37
        _STATISTICS_TAGS: BPS DURATION NUMBER_OF_FRAMES NUMBER_OF_BYTES
Input #1, mov,mp4,m4a,3gp,3g2,mj2, from 'G:\Аниме\Онгоинги\!_36_Осень_2024\DreamCast\Вы правда женитесь\[DC] Kekkon Surutte Hontou Desuka - 01_Telegram.mp4':
  Metadata:
    major_brand     : isom
    minor_version   : 512
    compatible_brands: isomiso2avc1mp41
    encoder         : Lavf61.1.100
  Duration: 00:23:48.68, start: 0.000000, bitrate: 3840 kb/s
  Stream #1:0[0x1](und): Video: h264 (High) (avc1 / 0x31637661), yuv420p(tv, bt709, progressive), 1920x1080 [SAR 1:1 DAR 16:9], 3698 kb/s, 23.98 fps, 23.98 tbr, 24k tbn (default)
      Metadata:
        handler_name    : VideoHandler
        vendor_id       : [0][0][0][0]
        encoder         : Lavc61.3.100 h264_qsv
  Stream #1:1[0x2](und): Audio: aac (HE-AACv2) (mp4a / 0x6134706D), 48000 Hz, stereo, fltp, 144 kb/s (default)
      Metadata:
        handler_name    : SoundHandler
        vendor_id       : [0][0][0][0]
Stream mapping:
  Stream #0:0 (hevc) -> settb:default
  Stream #1:0 (h264) -> settb:default
  psnr:default -> Stream #0:0 (wrapped_avframe)
  Stream #0:1 -> #0:1 (aac (native) -> pcm_s16le (native))
Output #0, null, to 'pipe:':
  Metadata:
    COMPATIBLE_BRANDS: isomiso2avc1mp41
    MAJOR_BRAND     : isom
    MINOR_VERSION   : 512
    encoder         : Lavf61.7.100
  Stream #0:0: Video: wrapped_avframe, yuv420p10le(tv, bt709, progressive), 1920x1080 [SAR 1:1 DAR 16:9], q=2-31, 200 kb/s, 23.98 fps, 23.98 tbn
      Metadata:
        encoder         : Lavc61.19.100 wrapped_avframe
  Stream #0:1: Audio: pcm_s16le, 48000 Hz, stereo, s16, 1536 kb/s (default)
      Metadata:
        HANDLER_NAME    : SoundHandler
        VENDOR_ID       : [0][0][0][0]
        _STATISTICS_TAGS: BPS DURATION NUMBER_OF_FRAMES NUMBER_OF_BYTES
        BPS             : 193425
        DURATION        : 00:23:48.736000000
        NUMBER_OF_FRAMES: 66973
        NUMBER_OF_BYTES : 34544309
        _STATISTICS_WRITING_APP: mkvpropedit v66.0.0 ('Josie') 64-bit
        _STATISTICS_WRITING_DATE_UTC: 2025-05-30 07:12:37
        encoder         : Lavc61.19.100 pcm_s16le
frame=  173 fps=0.0 q=-0.0 size=N/A time=00:00:07.21 bitrate=N/A speed=13.7x    frame=  390 fps=377 q=-0.0 size=N/A time=00:00:16.26 bitrate=N/A speed=15.7x    frame=  582 fps=377 q=-0.0 size=N/A time=00:00:24.27 bitrate=N/A speed=15.7x    frame=  790 fps=383 q=-0.0 size=N/A time=00:00:32.94 bitrate=N/A speed=  16x    frame= 1018 fps=394 q=-0.0 size=N/A time=00:00:42.45 bitrate=N/A speed=16.4x    frame= 1244 fps=403 q=-0.0 size=N/A time=00:00:51.88 bitrate=N/A speed=16.8x    frame= 1492 fps=413 q=-0.0 size=N/A time=00:01:02.22 bitrate=N/A speed=17.2x    frame= 1756 fps=425 q=-0.0 size=N/A time=00:01:13.23 bitrate=N/A speed=17.7x    frame= 1986 fps=428 q=-0.0 size=N/A time=00:01:22.83 bitrate=N/A speed=17.9x    frame= 2218 fps=430 q=-0.0 size=N/A time=00:01:32.50 bitrate=N/A speed=17.9x    frame= 2462 fps=434 q=-0.0 size=N/A time=00:01:42.68 bitrate=N/A speed=18.1x    frame= 2665 fps=430 q=-0.0 size=N/A time=00:01:51.15 bitrate=N/A speed=  18x    frame= 2836 fps=423 q=-0.0 size=N/A time=00:01:58.28 bitrate=N/A speed=17.6x    frame= 3059 fps=424 q=-0.0 size=N/A time=00:02:07.58 bitrate=N/A speed=17.7x    frame= 3265 fps=422 q=-0.0 size=N/A time=00:02:16.17 bitrate=N/A speed=17.6x    frame= 3473 fps=421 q=-0.0 size=N/A time=00:02:24.85 bitrate=N/A speed=17.6x    frame= 3712 fps=423 q=-0.0 size=N/A time=00:02:34.82 bitrate=N/A speed=17.7x    frame= 3945 fps=425 q=-0.0 size=N/A time=00:02:44.53 bitrate=N/A speed=17.7x    frame= 4158 fps=425 q=-0.0 size=N/A time=00:02:53.42 bitrate=N/A speed=17.7x    frame= 4369 fps=424 q=-0.0 size=N/A time=00:03:02.22 bitrate=N/A speed=17.7x    frame= 4589 fps=424 q=-0.0 size=N/A time=00:03:11.39 bitrate=N/A speed=17.7x    frame= 4802 fps=423 q=-0.0 size=N/A time=00:03:20.28 bitrate=N/A speed=17.7x    frame= 5026 fps=423 q=-0.0 size=N/A time=00:03:29.62 bitrate=N/A speed=17.7x    frame= 5254 fps=425 q=-0.0 size=N/A time=00:03:39.13 bitrate=N/A speed=17.7x    frame= 5481 fps=425 q=-0.0 size=N/A time=00:03:48.60 bitrate=N/A speed=17.7x    frame= 5688 fps=424 q=-0.0 size=N/A time=00:03:57.23 bitrate=N/A speed=17.7x    frame= 5899 fps=423 q=-0.0 size=N/A time=00:04:06.03 bitrate=N/A speed=17.7x    frame= 6115 fps=423 q=-0.0 size=N/A time=00:04:15.04 bitrate=N/A speed=17.7x    frame= 6345 fps=424 q=-0.0 size=N/A time=00:04:24.63 bitrate=N/A speed=17.7x    frame= 6592 fps=426 q=-0.0 size=N/A time=00:04:34.94 bitrate=N/A speed=17.8x    frame= 6809 fps=426 q=-0.0 size=N/A time=00:04:43.99 bitrate=N/A speed=17.8x    frame= 7029 fps=426 q=-0.0 size=N/A time=00:04:53.16 bitrate=N/A speed=17.8x    frame= 7239 fps=425 q=-0.0 size=N/A time=00:05:01.92 bitrate=N/A speed=17.7x    frame= 7474 fps=426 q=-0.0 size=N/A time=00:05:11.72 bitrate=N/A speed=17.8x    frame= 7631 fps=423 q=-0.0 size=N/A time=00:05:18.27 bitrate=N/A speed=17.6x    frame= 7861 fps=423 q=-0.0 size=N/A time=00:05:27.86 bitrate=N/A speed=17.7x    frame= 8094 fps=424 q=-0.0 size=N/A time=00:05:37.58 bitrate=N/A speed=17.7x    frame= 8318 fps=424 q=-0.0 size=N/A time=00:05:46.92 bitrate=N/A speed=17.7x    frame= 8570 fps=426 q=-0.0 size=N/A time=00:05:57.44 bitrate=N/A speed=17.8x    frame= 8791 fps=426 q=-0.0 size=N/A time=00:06:06.65 bitrate=N/A speed=17.8x    frame= 8955 fps=424 q=-0.0 size=N/A time=00:06:13.49 bitrate=N/A speed=17.7x    frame= 9141 fps=422 q=-0.0 size=N/A time=00:06:21.25 bitrate=N/A speed=17.6x    frame= 9372 fps=423 q=-0.0 size=N/A time=00:06:30.89 bitrate=N/A speed=17.6x    frame= 9589 fps=422 q=-0.0 size=N/A time=00:06:39.94 bitrate=N/A speed=17.6x    frame= 9829 fps=424 q=-0.0 size=N/A time=00:06:49.95 bitrate=N/A speed=17.7x    frame=10072 fps=424 q=-0.0 size=N/A time=00:07:00.08 bitrate=N/A speed=17.7x    frame=10287 fps=424 q=-0.0 size=N/A time=00:07:09.05 bitrate=N/A speed=17.7x    frame=10520 fps=425 q=-0.0 size=N/A time=00:07:18.77 bitrate=N/A speed=17.7x    frame=10765 fps=426 q=-0.0 size=N/A time=00:07:28.99 bitrate=N/A speed=17.8x    frame=10978 fps=426 q=-0.0 size=N/A time=00:07:37.87 bitrate=N/A speed=17.8x    frame=11175 fps=425 q=-0.0 size=N/A time=00:07:46.09 bitrate=N/A speed=17.7x    frame=11384 fps=424 q=-0.0 size=N/A time=00:07:54.80 bitrate=N/A speed=17.7x    frame=11612 fps=425 q=-0.0 size=N/A time=00:08:04.31 bitrate=N/A speed=17.7x    frame=11853 fps=426 q=-0.0 size=N/A time=00:08:14.36 bitrate=N/A speed=17.8x    frame=12048 fps=425 q=-0.0 size=N/A time=00:08:22.50 bitrate=N/A speed=17.7x    frame=12246 fps=424 q=-0.0 size=N/A time=00:08:30.76 bitrate=N/A speed=17.7x    frame=12460 fps=424 q=-0.0 size=N/A time=00:08:39.68 bitrate=N/A speed=17.7x    frame=12691 fps=424 q=-0.0 size=N/A time=00:08:49.32 bitrate=N/A speed=17.7x    frame=12930 fps=425 q=-0.0 size=N/A time=00:08:59.28 bitrate=N/A speed=17.7x    frame=13178 fps=426 q=-0.0 size=N/A time=00:09:09.63 bitrate=N/A speed=17.8x    frame=13435 fps=427 q=-0.0 size=N/A time=00:09:20.35 bitrate=N/A speed=17.8x    frame=13649 fps=427 q=-0.0 size=N/A time=00:09:29.27 bitrate=N/A speed=17.8x    frame=13854 fps=426 q=-0.0 size=N/A time=00:09:37.82 bitrate=N/A speed=17.8x    frame=14069 fps=426 q=-0.0 size=N/A time=00:09:46.79 bitrate=N/A speed=17.8x    frame=14308 fps=427 q=-0.0 size=N/A time=00:09:56.76 bitrate=N/A speed=17.8x    frame=14556 fps=428 q=-0.0 size=N/A time=00:10:07.10 bitrate=N/A speed=17.8x    frame=14788 fps=428 q=-0.0 size=N/A time=00:10:16.78 bitrate=N/A speed=17.9x    frame=15045 fps=429 q=-0.0 size=N/A time=00:10:27.50 bitrate=N/A speed=17.9x    frame=15277 fps=429 q=-0.0 size=N/A time=00:10:37.17 bitrate=N/A speed=17.9x    frame=15511 fps=430 q=-0.0 size=N/A time=00:10:46.93 bitrate=N/A speed=17.9x    frame=15729 fps=430 q=-0.0 size=N/A time=00:10:56.03 bitrate=N/A speed=17.9x    frame=15977 fps=430 q=-0.0 size=N/A time=00:11:06.37 bitrate=N/A speed=17.9x    frame=16210 fps=431 q=-0.0 size=N/A time=00:11:16.09 bitrate=N/A speed=  18x    frame=16423 fps=430 q=-0.0 size=N/A time=00:11:24.97 bitrate=N/A speed=  18x    frame=16643 fps=430 q=-0.0 size=N/A time=00:11:34.15 bitrate=N/A speed=17.9x    frame=16847 fps=430 q=-0.0 size=N/A time=00:11:42.66 bitrate=N/A speed=17.9x    frame=17018 fps=429 q=-0.0 size=N/A time=00:11:49.79 bitrate=N/A speed=17.9x    frame=17269 fps=429 q=-0.0 size=N/A time=00:12:00.26 bitrate=N/A speed=17.9x    frame=17479 fps=429 q=-0.0 size=N/A time=00:12:09.01 bitrate=N/A speed=17.9x    frame=17677 fps=429 q=-0.0 size=N/A time=00:12:17.27 bitrate=N/A speed=17.9x    frame=17912 fps=429 q=-0.0 size=N/A time=00:12:27.07 bitrate=N/A speed=17.9x    frame=18127 fps=429 q=-0.0 size=N/A time=00:12:36.04 bitrate=N/A speed=17.9x    frame=18340 fps=428 q=-0.0 size=N/A time=00:12:44.93 bitrate=N/A speed=17.9x    frame=18593 fps=429 q=-0.0 size=N/A time=00:12:55.48 bitrate=N/A speed=17.9x    frame=18850 fps=430 q=-0.0 size=N/A time=00:13:06.20 bitrate=N/A speed=17.9x    frame=19112 fps=431 q=-0.0 size=N/A time=00:13:17.12 bitrate=N/A speed=  18x    frame=19311 fps=430 q=-0.0 size=N/A time=00:13:25.42 bitrate=N/A speed=  18x    frame=19555 fps=431 q=-0.0 size=N/A time=00:13:35.60 bitrate=N/A speed=  18x    frame=19784 fps=431 q=-0.0 size=N/A time=00:13:45.15 bitrate=N/A speed=  18x    frame=20045 fps=432 q=-0.0 size=N/A time=00:13:56.04 bitrate=N/A speed=  18x    frame=20292 fps=432 q=-0.0 size=N/A time=00:14:06.34 bitrate=N/A speed=  18x    frame=20568 fps=433 q=-0.0 size=N/A time=00:14:17.85 bitrate=N/A speed=18.1x    frame=20773 fps=433 q=-0.0 size=N/A time=00:14:26.40 bitrate=N/A speed=18.1x    frame=20992 fps=433 q=-0.0 size=N/A time=00:14:35.54 bitrate=N/A speed=18.1x    frame=21224 fps=433 q=-0.0 size=N/A time=00:14:45.21 bitrate=N/A speed=18.1x    frame=21455 fps=433 q=-0.0 size=N/A time=00:14:54.85 bitrate=N/A speed=18.1x    frame=21690 fps=434 q=-0.0 size=N/A time=00:15:04.65 bitrate=N/A speed=18.1x    frame=21895 fps=433 q=-0.0 size=N/A time=00:15:13.20 bitrate=N/A speed=18.1x    frame=22142 fps=434 q=-0.0 size=N/A time=00:15:23.50 bitrate=N/A speed=18.1x    frame=22398 fps=434 q=-0.0 size=N/A time=00:15:34.18 bitrate=N/A speed=18.1x    frame=22643 fps=435 q=-0.0 size=N/A time=00:15:44.40 bitrate=N/A speed=18.1x    frame=22878 fps=435 q=-0.0 size=N/A time=00:15:54.20 bitrate=N/A speed=18.1x    frame=23128 fps=436 q=-0.0 size=N/A time=00:16:04.63 bitrate=N/A speed=18.2x    frame=23354 fps=436 q=-0.0 size=N/A time=00:16:14.05 bitrate=N/A speed=18.2x    frame=23574 fps=435 q=-0.0 size=N/A time=00:16:23.23 bitrate=N/A speed=18.2x    frame=23779 fps=435 q=-0.0 size=N/A time=00:16:31.78 bitrate=N/A speed=18.1x    frame=24005 fps=435 q=-0.0 size=N/A time=00:16:41.20 bitrate=N/A speed=18.1x    frame=24254 fps=435 q=-0.0 size=N/A time=00:16:51.59 bitrate=N/A speed=18.2x    frame=24495 fps=436 q=-0.0 size=N/A time=00:17:01.64 bitrate=N/A speed=18.2x    frame=24726 fps=436 q=-0.0 size=N/A time=00:17:11.28 bitrate=N/A speed=18.2x    frame=24946 fps=436 q=-0.0 size=N/A time=00:17:20.45 bitrate=N/A speed=18.2x    frame=25202 fps=436 q=-0.0 size=N/A time=00:17:31.13 bitrate=N/A speed=18.2x    frame=25460 fps=437 q=-0.0 size=N/A time=00:17:41.89 bitrate=N/A speed=18.2x    frame=25713 fps=437 q=-0.0 size=N/A time=00:17:52.44 bitrate=N/A speed=18.2x    frame=25899 fps=437 q=-0.0 size=N/A time=00:18:00.20 bitrate=N/A speed=18.2x    frame=26157 fps=437 q=-0.0 size=N/A time=00:18:10.96 bitrate=N/A speed=18.2x    frame=26422 fps=438 q=-0.0 size=N/A time=00:18:22.01 bitrate=N/A speed=18.3x    frame=26618 fps=437 q=-0.0 size=N/A time=00:18:30.19 bitrate=N/A speed=18.2x    frame=26811 fps=437 q=-0.0 size=N/A time=00:18:38.24 bitrate=N/A speed=18.2x    frame=27071 fps=438 q=-0.0 size=N/A time=00:18:49.08 bitrate=N/A speed=18.2x    frame=27325 fps=438 q=-0.0 size=N/A time=00:18:59.68 bitrate=N/A speed=18.3x    frame=27551 fps=438 q=-0.0 size=N/A time=00:19:09.10 bitrate=N/A speed=18.3x    frame=27766 fps=438 q=-0.0 size=N/A time=00:19:18.07 bitrate=N/A speed=18.3x    frame=27947 fps=437 q=-0.0 size=N/A time=00:19:25.62 bitrate=N/A speed=18.2x    frame=28180 fps=437 q=-0.0 size=N/A time=00:19:35.34 bitrate=N/A speed=18.2x    frame=28389 fps=437 q=-0.0 size=N/A time=00:19:44.09 bitrate=N/A speed=18.2x    frame=28654 fps=438 q=-0.0 size=N/A time=00:19:55.11 bitrate=N/A speed=18.2x    frame=28890 fps=438 q=-0.0 size=N/A time=00:20:04.95 bitrate=N/A speed=18.3x    frame=29079 fps=437 q=-0.0 size=N/A time=00:20:12.83 bitrate=N/A speed=18.2x    frame=29333 fps=438 q=-0.0 size=N/A time=00:20:23.43 bitrate=N/A speed=18.3x    frame=29601 fps=438 q=-0.0 size=N/A time=00:20:34.60 bitrate=N/A speed=18.3x    frame=29844 fps=438 q=-0.0 size=N/A time=00:20:44.74 bitrate=N/A speed=18.3x    frame=30108 fps=439 q=-0.0 size=N/A time=00:20:55.75 bitrate=N/A speed=18.3x    frame=30353 fps=439 q=-0.0 size=N/A time=00:21:05.97 bitrate=N/A speed=18.3x    frame=30598 fps=440 q=-0.0 size=N/A time=00:21:16.19 bitrate=N/A speed=18.3x    frame=30843 fps=440 q=-0.0 size=N/A time=00:21:26.41 bitrate=N/A speed=18.3x    frame=31063 fps=440 q=-0.0 size=N/A time=00:21:35.58 bitrate=N/A speed=18.3x    frame=31225 fps=439 q=-0.0 size=N/A time=00:21:42.34 bitrate=N/A speed=18.3x    frame=31453 fps=439 q=-0.0 size=N/A time=00:21:51.85 bitrate=N/A speed=18.3x    frame=31696 fps=439 q=-0.0 size=N/A time=00:22:01.98 bitrate=N/A speed=18.3x    frame=31956 fps=439 q=-0.0 size=N/A time=00:22:12.83 bitrate=N/A speed=18.3x    frame=32200 fps=440 q=-0.0 size=N/A time=00:22:23.00 bitrate=N/A speed=18.3x    frame=32442 fps=440 q=-0.0 size=N/A time=00:22:33.10 bitrate=N/A speed=18.4x    frame=32688 fps=440 q=-0.0 size=N/A time=00:22:43.36 bitrate=N/A speed=18.4x    frame=32944 fps=441 q=-0.0 size=N/A time=00:22:54.03 bitrate=N/A speed=18.4x    frame=33195 fps=441 q=-0.0 size=N/A time=00:23:04.50 bitrate=N/A speed=18.4x    frame=33445 fps=441 q=-0.0 size=N/A time=00:23:14.93 bitrate=N/A speed=18.4x    frame=33674 fps=441 q=-0.0 size=N/A time=00:23:24.48 bitrate=N/A speed=18.4x    frame=33917 fps=441 q=-0.0 size=N/A time=00:23:34.62 bitrate=N/A speed=18.4x    frame=34121 fps=441 q=-0.0 size=N/A time=00:23:43.13 bitrate=N/A speed=18.4x    [Parsed_psnr_10 @ 000001fda9960fc0] PSNR y:47.496715 u:50.195565 v:50.518616 average:48.257508 min:41.271395 max:inf
[out#0/null @ 000001fd9ccaf080] video:14697KiB audio:267892KiB subtitle:0KiB other streams:0KiB global headers:0KiB muxing overhead: unknown
frame=34203 fps=441 q=-0.0 Lsize=N/A time=00:23:46.55 bitrate=N/A speed=18.4x    
